<?xml version="1.0" standalone="no"?>
<!DOCTYPE svg PUBLIC "-//W3C//DTD SVG 20010904//EN"
 "http://www.w3.org/TR/2001/REC-SVG-20010904/DTD/svg10.dtd">
<svg version="1.0" xmlns="http://www.w3.org/2000/svg"
 width="512.000000pt" height="512.000000pt" viewBox="0 0 512.000000 512.000000"
 preserveAspectRatio="xMidYMid meet">
<metadata>
Created by potrace 1.14, written by Peter Selinger 2001-2017
</metadata>
<g transform="translate(0.000000,512.000000) scale(0.100000,-0.100000)"
fill="#000000" stroke="none">
<path d="M4062 5109 c-85 -14 -202 -65 -303 -131 -113 -74 -304 -261 -433
-423 -312 -392 -674 -1044 -982 -1769 -81 -191 -94 -216 -146 -272 -92 -98
-190 -141 -501 -220 -168 -42 -274 -84 -417 -165 -340 -193 -608 -490 -721
-801 -54 -148 -72 -241 -73 -378 0 -69 6 -152 13 -185 82 -392 339 -658 711
-738 115 -25 364 -29 480 -9 432 76 746 316 935 716 146 308 193 697 135 1121
-24 179 -5 350 61 549 120 363 383 740 824 1182 226 226 366 352 652 586 100
82 201 170 223 196 89 104 132 243 112 362 -26 146 -119 273 -246 335 -107 52
-198 65 -324 44z"/>
</g>
</svg>
